<svg xmlns="http://www.w3.org/2000/svg" viewBox="0 0 157.6 157.6">
<!-- SVG created with Arrow, by QuiverAI (https://quiver.ai) -->
  <style type="text/css">.cls-0 {fill:#060607;}
.cls-1 {fill:#EBEBEB;}
.cls-2 {fill:#FE4908;}
.cls-3 {fill:#1A1A1B;}</style>
  <path class="cls-0" d="m138.4 0h-119.2c-10.6 0-19.2 8.6-19.2 19.3v118.7-0.3c0 10.4 7.7 19.9 19.2 19.9h119.2l-0.1-0.1c10.6 0 19.3-8.6 19.3-19.2v-119c0-10.7-8.6-19.3-19.2-19.3z"/>
  <path class="cls-1" d="m122 43.8-37.2-23.3c-2.6-1.5-6.5-1.7-9.3-0.3l-7.3 4.5c-2.1 1.3-1.9 3.8 0.6 5.2l37.7 24.1c2.2 1.4 5.5 1.9 8.5 0.7l7.3-4.9c2.4-1.5 2.2-4.3-0.3-6m-8.8 4.1c-1.2 0.7-2.5 1-4.5 0.1l-31.9-19.4c-1.1-0.9-0.6-1.7 0.9-2.6 1.1-0.9 3.3-1 4.7-0.1l30.8 18.9c1.8 0.9 2.2 2 0 3.1"/>
  <path class="cls-1" d="m104.2 55.4-37.2-24c-2.2-1.4-5.9-1.7-8.6-0.3l-7.1 4.4c-2.5 1.5-2.3 3.7 0.1 5.2l37.2 24.7c2.3 1.6 6.2 2.3 9 0.8l6.8-4.5c2.8-1.6 2.3-4.6-0.2-6.3m-8.5 4.3c-1.7 1.2-3.1 1.7-4.8 0.7l-31-20.9c-0.9-0.7-0.9-1.5 0.2-2.2l1-0.6c0.9-0.6 2.4-0.7 3.8 0.1l31.1 20.2c1 0.9 0.9 1.9-0.3 2.7"/>
  <path class="cls-1" d="m85.9 66.6-16.4-11.5c-1.9-1.3-4.9-1.7-6.5-1.1 0.5-1.8-0.3-3.5-1.8-5l-11.9-7.2c-2.3-1.3-6.6-1.8-9.3-0.2l-7.3 4.3c-2.7 1.6-1.7 3.7 0.4 4.9l6 3.9 4.7-3.1-3.2-2.4c-0.6-0.4-0.3-0.9 0.4-1.3l1.9-1.1c1.1-0.8 2.8-0.9 4-0.2l7.6 4.8c1.7 1.1 1.9 2.2 0.4 3.3l-3.3 2.6 6.3 4.3 2.8-1.9c1.3-0.9 2.9-1.5 4.9-0.3l12.6 8.5c1.5 0.9 1.5 2.3 0.2 3.1l-1 0.8c-0.7 0.5-1.9 0.9-3.4 0l-7.2-4.7-4.2 3 9.7 6.9c2.2 1.4 6.1 2.1 8.7 0.4l5.2-3.8c3-1.8 2.4-5.2-0.3-7"/>
  <path class="cls-2" d="m77.2 83.7-46.5-31c-0.3-0.2-0.7 0-0.7 0.3v25.7c0 2.4 1.4 5 3.4 6.3l32.1 20.9c0.7 0.5 1 1.3 1 2.1v10c0 0.6-0.6 0.9-1.1 0.6l-23.5-16.2c-0.7-0.4-1.3-1.3-1.3-2.2v-3.3c0-0.3-0.3-0.7-0.5-0.8l-9.6-6.1c-0.2-0.3-0.5 0-0.5 0.2l-0.2 12.8c0.2 2.4 1.6 5 3.9 6.4l43.1 29.5c0.6 0.4 0.7 0 0.7-0.3v-32.4c0-2-1.4-4.7-3.8-6.2l-32.1-20.8c-0.7-0.5-1.1-1.3-1.1-2v-4.7c0-0.9 0.9-1.3 1.6-0.7l34.9 22.8c0.2 0.3 0.6 0 0.6-0.4v-10.2l-0.4-0.3z"/>
  <path class="cls-2" d="m124.9 51.1c-0.2-0.1-0.5-0.1-0.9 0.1l-40.4 28.4c-0.6 0.4-0.7 1.1-0.7 1.6l-0.2 57.4c0 0.5 0.3 0.5 0.5 0.3l41.1-27.4c1.1-0.6 1.6-0.9 2.1-2.3l4.6-10.3c0.4-0.9 0.4-1.5 0.4-2.3v-40.6c0-0.3-0.2-0.5-0.4-0.6l-6.1-4.3zm-3.4 45.9c0 1.4-0.6 3.2-2 4.1l-25.5 17.9-0.1-33.3c0-1.1 0.6-1.8 1.2-2.3l24.4-16.2c1.4-1 2.1 0.7 2.1 2v27.8h-0.1z"/>
  <polygon class="cls-3" points="78.9 82.7 78.9 140.2 80.1 141 81.4 140.2 81.1 80.7"/>
</svg>
