<svg xmlns="http://www.w3.org/2000/svg" viewBox="-16.2 0 182.4 182.4">
<!-- Monochrome square derivative of the operator-selected QuiverAI tray master. -->
  <g fill="#000000">
    <path d="m139 41.4-59.7-38.4c-1.3-0.8-3.3-0.8-4.7 0l-12.7 7.7c-2.5 1.4-3.3 4-1.1 5.5l57.6 37.8 2 1.4c1.4 1 3.4 1.1 5.1 0.2l13.5-9.2c1.8-1.4 2-3.7 0-5zm-19.6 4.2-46.2-31 4-2.4c0.4-0.5 0.8-0.2 1.2 0l46.2 30.4h0.1-0.1 0.1l1.5 1.1-6.9 2.2 0.1-0.3z"/>
    <path d="m112.9 54.5-55.8-36.9c-1.4-0.9-3.5-1.2-5.5-0.2l-14 8.7c-2.6 1.5-2.9 3.9-0.6 5.4 0 0 57.1 40.5 57.1 40.6 1 0.8 2.6 1.1 3.9 0.4l14.5-9.1c3.1-1.8 3.2-5.8 0.4-8.9zm-18.4 6.5-45.1-31.2 4.9-3.1c0.4-0.3 0.9-0.1 1.3 0.2l43.9 30.4-5 3.7z"/>
    <path d="m146.6 58.9-7.6-4.2c-0.9-0.5-2-0.6-3 0l-58.8 38.3c-0.4 0.2-0.6 0.6-0.6 1v85.3c0 0.7 0.6 0.9 1.4 0.5l61-41.3c1-0.6 2.4-2.1 2.9-3.1l4-7.5c1.1-1.8 1.8-4.5 1.8-7.9l-0.1-58.9c0-1-0.4-1.7-1-2.2zm-14.5 58.6c0 2.5-1 5.5-3.2 6.7l-33.4 22c-0.8 0.5-1.5 0.2-1.5-0.7l0.2-42.9c-0.1-0.7 0.4-1.5 1.2-2l33-23c1.6-1.5 3.7-0.6 3.7 1.4v38.5z"/>
    <path d="m70.7 93.2-66.5-42.3c-0.8-0.5-1.8-0.2-1.8 1v35.2c0 3.3 1.7 6.6 4.5 8.6l48.6 33.5c0.9 0.7 1.5 1.9 1.6 3.4v15.9c0 0.9-0.7 1.1-1.5 0.5l-35.5-22.3c-1.5-0.8-2.4-2.6-2.4-4.2v-4.9c0-1.1-0.3-1.5-0.7-1.7l-13.4-8.4c-0.7-0.4-1.2 0-1.2 0.5v18.7c0.1 3.4 2 7.4 5 9.8l63.2 43c0.8 0.6 0.9 0.1 0.9-0.4v-49c0-3.6-2-7.6-5.5-10.1l-46.9-31c-0.7-0.6-1.4-1.8-1.4-2.6v-8.4c0-0.4 0.4-0.9 1-0.5l51.9 32.9c0.6 0.3 0.9 0.1 0.9-0.4v-15.8c0-0.5-0.3-0.8-0.8-1z"/>
    <path d="m87 72.2-25.8-19.6c-1.5-1.1-3.1-1.5-5.3-0.2-0.9 0.6-1.9 0.6-1.9-0.8l0.1-1.9c0-1-0.6-1.8-1.4-2.5l-21-14.2c-1.6-1-3.3-1.3-5.3-0.3l-17.4 10.9c-0.6 0.4-0.6 1.1 0 1.5l6.6 4.4c0.5 0.4 1 0.1 1.4-0.1l12-6.9c0.2-0.1 0.6-0.1 1 0.1l12.9 8.6c0.6 0.4 0.6 0.8-0.2 1.3l-6.3 3.5c-0.4 0.2-0.5 0.7 0 1.1l8.6 6.4c0.6 0.4 1.1 0.4 1.5 0.1l7.7-4.9 15.3 11c0.9 0.5 0.6 1.7 0.1 2.2l-9.4 6.3c-0.6 0.3-0.5 1.3 0 1.4l12.2 8.3c0.6 0.5 1.1 0.5 1.5 0.2l13.2-8.7c2.8-1.8 2.5-5.9-0.1-7.2z"/>
    <path d="m59.8 78.1 9.8-6.2c0.5-0.3 0.6-1 0.1-1.4l-15.2-11.8-8 5c-0.4 0.3-1 0.3-1.3 0l-8.8-6.3c-0.5-0.3-0.5-0.9 0-1.3l6.3-3.7c0.7-0.3 0.7-0.9 0.2-1.3l-12.9-8.5c-0.3-0.2-0.8-0.2-1-0.1l-12.1 7.5c-0.3 0.1-0.8 0-1-0.1l-6.9-4.7c-0.5-0.5-0.6-1.1 0.1-1.6l17.3-10.7c1.5-0.8 3.3-1 5.3 0.1l20.9 14.1c0.8 0.5 1.5 1.5 1.5 2.5l-0.1 2.1c0 1.2 1 1.3 1.6 0.8 1.8-0.9 3.4-1.4 5.4-0.1l26.1 19.8c2.8 1.5 2.9 5.8-0.5 7.4l-12.7 8.3c-0.5 0.5-1 0.5-1.5 0.2l-12.2-8.1c-1.1-0.6-0.8-1.5-0.4-1.9z"/>
  </g>
</svg>
